<svg width="20" height="13" viewBox="0 0 20 13" fill="none" xmlns="http://www.w3.org/2000/svg">
<path d="M0.456 0.672H4.44C5.16533 0.672 5.76267 0.773333 6.232 0.976C6.70133 1.168 7.06933 1.41867 7.336 1.728C7.61333 2.02667 7.80533 2.368 7.912 2.752C8.01867 3.12533 8.072 3.488 8.072 3.84C8.072 4.192 8.01867 4.56 7.912 4.944C7.80533 5.31733 7.61333 5.65867 7.336 5.968C7.06933 6.26667 6.70133 6.51733 6.232 6.72C5.76267 6.912 5.16533 7.008 4.44 7.008H1.992V12H0.456V0.672ZM1.992 5.664H4.008C4.30667 5.664 4.6 5.64267 4.888 5.6C5.18667 5.54667 5.448 5.456 5.672 5.328C5.90667 5.2 6.09333 5.01867 6.232 4.784C6.37067 4.53867 6.44 4.224 6.44 3.84C6.44 3.456 6.37067 3.14667 6.232 2.912C6.09333 2.66667 5.90667 2.48 5.672 2.352C5.448 2.224 5.18667 2.13867 4.888 2.096C4.6 2.04267 4.30667 2.016 4.008 2.016H1.992V5.664ZM17.8284 3.12C17.5084 2.704 17.103 2.384 16.6124 2.16C16.1217 1.936 15.615 1.824 15.0924 1.824C14.4524 1.824 13.871 1.94667 13.3484 2.192C12.8364 2.42667 12.3937 2.752 12.0204 3.168C11.6577 3.584 11.375 4.07467 11.1724 4.64C10.9697 5.19467 10.8684 5.792 10.8684 6.432C10.8684 7.02933 10.9644 7.59467 11.1564 8.128C11.3484 8.66133 11.6257 9.13067 11.9884 9.536C12.351 9.94133 12.7937 10.2613 13.3164 10.496C13.839 10.7307 14.431 10.848 15.0924 10.848C15.743 10.848 16.3137 10.7147 16.8044 10.448C17.295 10.1813 17.711 9.808 18.0524 9.328L19.3484 10.304C19.263 10.4213 19.1137 10.592 18.9004 10.816C18.687 11.0293 18.4044 11.248 18.0524 11.472C17.7004 11.6853 17.2737 11.872 16.7724 12.032C16.2817 12.2027 15.711 12.288 15.0604 12.288C14.1644 12.288 13.3537 12.1173 12.6284 11.776C11.9137 11.4347 11.3004 10.9867 10.7884 10.432C10.287 9.87733 9.90304 9.25333 9.63638 8.56C9.36971 7.856 9.23638 7.14667 9.23638 6.432C9.23638 5.55733 9.38038 4.752 9.66838 4.016C9.95638 3.26933 10.3564 2.62933 10.8684 2.096C11.391 1.552 12.015 1.13067 12.7404 0.832C13.4657 0.533333 14.2657 0.384 15.1404 0.384C15.887 0.384 16.6177 0.528 17.3324 0.815999C18.0577 1.104 18.6497 1.54667 19.1084 2.144L17.8284 3.12Z" fill="#FEFEFE" fill-opacity="0.9"/>
</svg>
