<svg width="40" height="40" viewBox="0 0 40 40" fill="none" xmlns="http://www.w3.org/2000/svg">
<g clip-path="url(#clip0)">
<path d="M20.5087 21.9663V17.9876C20.5087 17.1738 20.885 16.5938 21.6937 16.5938H26.68C26.705 16.5938 26.7388 16.5676 26.7388 16.5351V15.7401C26.7388 15.7338 26.7388 15.7288 26.7325 15.7213H20.6325C19.3113 15.8901 18.6663 16.8151 18.6663 17.9863V21.9651C18.6663 22.7651 18.2762 23.3513 17.4812 23.3513H12.2275C12.1937 23.3513 12.1687 23.3701 12.1687 23.4101V24.2038C12.1687 24.2376 12.1825 24.2638 12.2 24.2688H18.1763C19.7325 24.2238 20.5012 23.2338 20.5012 21.9588L20.5087 21.9663ZM0.03875 24.2763H1.79C1.80445 24.2712 1.81681 24.2614 1.82517 24.2485C1.83352 24.2356 1.83742 24.2204 1.83625 24.2051V21.6738C1.83625 20.8601 2.29125 20.3001 2.96125 20.3001H10.17C11.79 20.3001 12.5787 19.3038 12.5787 17.9951C12.5787 16.8163 11.9338 15.8988 10.6125 15.7301H0.01375C0.01375 15.7351 0 15.7413 0 15.7488V16.5438C0 16.5826 0.02 16.6026 0.05875 16.6026H9.5575C10.3663 16.6026 10.7425 17.1826 10.7425 17.9888C10.7425 18.7951 10.3663 19.3826 9.5575 19.3826H2.04625C0.88 19.3826 0.00125 20.3726 0.00125 21.6738V24.2051C0.00125 24.2388 0.02125 24.2651 0.04625 24.2701L0.03875 24.2763ZM26.705 23.3601H36.2762C36.3013 23.3601 36.3275 23.3788 36.3275 23.3988V24.2051C36.3275 24.2451 36.3525 24.2651 36.3787 24.2651H38.1037C38.1375 24.2651 38.1688 24.2451 38.1688 24.2051V23.4113C38.1688 23.3776 38.2025 23.3526 38.2337 23.3526H39.9475C39.9863 23.3526 40.0063 23.3188 40.0063 23.2938V22.4851C40.0063 22.4538 39.9925 22.4201 39.9475 22.4201H38.2337C38.2025 22.4201 38.1688 22.3951 38.1688 22.3688V16.5938C38.1688 16.1251 38 15.8251 37.7 15.7226H37.205C37.0281 15.7754 36.8581 15.8493 36.6987 15.9426L26.3988 22.3038C25.995 22.5576 25.8587 22.8376 25.955 23.0451C26.0338 23.2213 26.2687 23.3513 26.71 23.3513L26.705 23.3601ZM28.2038 22.2988L36.185 17.3576C36.2363 17.3188 36.335 17.3313 36.335 17.4426V22.3776C36.335 22.4088 36.3088 22.4363 36.2838 22.4363H28.2488C28.1838 22.4363 28.1525 22.4163 28.145 22.3976C28.1313 22.3576 28.1512 22.3263 28.2038 22.2988Z" fill="#FEFEFE"/>
</g>
<defs>
<clipPath id="clip0">
<rect width="40" height="40" fill="white"/>
</clipPath>
</defs>
</svg>
