<svg width="1360" height="340" viewBox="0 0 1360 340" fill="none" xmlns="http://www.w3.org/2000/svg">
<rect width="1360" height="340" rx="6" fill="#9C27B0"/>
<path d="M26.3246 339.916C12.6826 340.058 4.58354 339.993 2.87451 339.916H26.3246C174.933 338.366 981.302 312.264 1350.12 10.8786C1354.08 7.64328 1360 10.5048 1360 15.6178V333.916C1360 337.23 1357.31 339.916 1354 339.916H26.3246Z" fill="#8E24AA"/>
<circle cx="421" cy="95" r="15" fill="#FEFEFE" fill-opacity="0.06"/>
<circle cx="570" cy="251" r="15" fill="#FEFEFE" fill-opacity="0.06"/>
<circle cx="1008" cy="227" r="15" fill="#FEFEFE" fill-opacity="0.06"/>
<circle cx="118" cy="226" r="15" fill="#FEFEFE" fill-opacity="0.06"/>
<circle cx="1320" cy="291.929" r="15" fill="#FEFEFE" fill-opacity="0.06"/>
<path d="M869.269 95L874.671 109.598L889.269 115L874.671 120.402L869.269 135L863.867 120.402L849.269 115L863.867 109.598L869.269 95Z" fill="#FEFEFE" fill-opacity="0.06"/>
<path d="M203 95L208.402 109.598L223 115L208.402 120.402L203 135L197.598 120.402L183 115L197.598 109.598L203 95Z" fill="#FEFEFE" fill-opacity="0.06"/>
<path d="M755.609 286.929L761.01 301.527L775.609 306.929L761.01 312.331L755.609 326.929L750.207 312.331L735.609 306.929L750.207 301.527L755.609 286.929Z" fill="#FEFEFE" fill-opacity="0.06"/>
<path d="M1245 155L1250.4 169.598L1265 175L1250.4 180.402L1245 195L1239.6 180.402L1225 175L1239.6 169.598L1245 155Z" fill="#FEFEFE" fill-opacity="0.06"/>
<path d="M327 259.441L332.402 274.04L347 279.441L332.402 284.843L327 299.441L321.598 284.843L307 279.441L321.598 274.04L327 259.441Z" fill="#FEFEFE" fill-opacity="0.06"/>
</svg>
