<svg width="25" height="26" viewBox="0 0 25 26" fill="none" xmlns="http://www.w3.org/2000/svg">
<path d="M9.93726 8.8695C7.07126 7.1 5.36976 6.34375 5.36976 6.34375C3.68259 8.15101 2.74601 10.5324 2.75001 13.0048C2.75001 15.312 3.54751 17.4285 4.88051 19.098C4.88051 19.0982 3.54326 15.5058 9.93726 8.8695Z" fill="#FEFEFE"/>
<path d="M12.4927 6.98372L12.5007 6.98822C12.4985 6.98669 12.4964 6.98519 12.4942 6.98372C16.3964 4.16397 18.8204 5.58097 18.8204 5.58097C17.1197 4.11947 14.9099 3.23572 12.4942 3.23572C10.0794 3.23572 7.8697 4.11947 6.16895 5.58097C6.1687 5.58097 8.5927 4.13072 12.4927 6.98372Z" fill="#FEFEFE"/>
<path d="M12.4616 10.9867C7.03756 15.0014 5.45605 19.7397 5.45605 19.7397C7.2268 21.6034 9.72606 22.7642 12.4941 22.7642C15.2693 22.7642 17.7726 21.5997 19.5438 19.7289C19.5438 19.7289 18.5138 15.4672 12.4616 10.9867Z" fill="#FEFEFE"/>
<path d="M22.25 13.0048C22.2539 10.5324 21.3174 8.15104 19.6302 6.34375C19.6302 6.34375 17.9287 7.1 15.0627 8.8695C21.4567 15.5058 20.1195 19.098 20.1195 19.098C21.5025 17.3686 22.2541 15.2191 22.25 13.0048Z" fill="#FEFEFE"/>
</svg>
